<svg width="31" height="28" viewBox="0 0 31 28" fill="none" xmlns="http://www.w3.org/2000/svg">
<path d="M15.8591 5.00687C15.763 4.92409 15.635 4.87788 15.502 4.87788C15.3689 4.87788 15.241 4.92409 15.1448 5.00687L3.25506 15.2293C3.20456 15.2728 3.16439 15.325 3.13697 15.3829C3.10955 15.4407 3.09546 15.503 3.09553 15.5659L3.0936 25.16C3.0936 25.6533 3.31133 26.1264 3.69891 26.4752C4.08648 26.824 4.61215 27.02 5.16026 27.02H11.3667C11.6408 27.02 11.9036 26.922 12.0974 26.7476C12.2912 26.5732 12.4 26.3366 12.4 26.09V18.185C12.4 18.0616 12.4545 17.9434 12.5514 17.8562C12.6483 17.769 12.7797 17.72 12.9167 17.72H18.0834C18.2204 17.72 18.3518 17.769 18.4487 17.8562C18.5456 17.9434 18.6 18.0616 18.6 18.185V26.09C18.6 26.3366 18.7089 26.5732 18.9027 26.7476C19.0965 26.922 19.3593 27.02 19.6334 27.02H25.8372C26.3853 27.02 26.911 26.824 27.2986 26.4752C27.6861 26.1264 27.9039 25.6533 27.9039 25.16V15.5659C27.904 15.503 27.8899 15.4407 27.8624 15.3829C27.835 15.325 27.7948 15.2728 27.7444 15.2293L15.8591 5.00687Z" fill="#21272A"/>
<path d="M30.6712 13.3112L25.8404 9.15182V2.84003C25.8404 2.59338 25.7315 2.35683 25.5377 2.18242C25.344 2.00801 25.0811 1.91003 24.8071 1.91003H21.7071C21.433 1.91003 21.1702 2.00801 20.9764 2.18242C20.7826 2.35683 20.6737 2.59338 20.6737 2.84003V4.70003L16.9331 1.48106C16.583 1.16254 16.0625 0.980026 15.5 0.980026C14.9394 0.980026 14.4202 1.16254 14.0701 1.48165L0.333274 13.3101C-0.0684337 13.6588 -0.118809 14.2325 0.246732 14.6103C0.338525 14.7057 0.450919 14.7833 0.577074 14.8383C0.70323 14.8933 0.840507 14.9247 0.980553 14.9304C1.1206 14.9362 1.26048 14.9163 1.39169 14.8718C1.5229 14.8274 1.64269 14.7594 1.74377 14.672L15.1448 3.14693C15.2409 3.06415 15.3689 3.01794 15.5019 3.01794C15.635 3.01794 15.7629 3.06415 15.8591 3.14693L29.2614 14.672C29.4588 14.8423 29.7232 14.9353 29.9967 14.9305C30.2702 14.9258 30.5304 14.8236 30.7203 14.6464C31.1169 14.2767 31.0839 13.6664 30.6712 13.3112Z" fill="#21272A"/>
</svg>
